<?xml version="1.0" encoding="UTF-8" standalone="no"?>
<!-- Generator: Adobe Illustrator 19.0.0, SVG Export Plug-In . SVG Version: 6.00 Build 0)  -->

<svg
   xmlns:dc="http://purl.org/dc/elements/1.1/"
   xmlns:cc="http://creativecommons.org/ns#"
   xmlns:rdf="http://www.w3.org/1999/02/22-rdf-syntax-ns#"
   xmlns:svg="http://www.w3.org/2000/svg"
   xmlns="http://www.w3.org/2000/svg"
   xmlns:sodipodi="http://sodipodi.sourceforge.net/DTD/sodipodi-0.dtd"
   xmlns:inkscape="http://www.inkscape.org/namespaces/inkscape"
   version="1.1"
   id="Layer_1"
   x="0px"
   y="0px"
   viewBox="0 0 481.306 481.306"
   style="enable-background:new 0 0 481.306 481.306;"
   xml:space="preserve"
   sodipodi:docname="02n.svg"
   inkscape:version="0.92.5 (2060ec1f9f, 2020-04-08)"><metadata
   id="metadata53"><rdf:RDF><cc:Work
       rdf:about=""><dc:format>image/svg+xml</dc:format><dc:type
         rdf:resource="http://purl.org/dc/dcmitype/StillImage" /><dc:title></dc:title></cc:Work></rdf:RDF></metadata><defs
   id="defs51" /><sodipodi:namedview
   pagecolor="#ffffff"
   bordercolor="#666666"
   borderopacity="1"
   objecttolerance="10"
   gridtolerance="10"
   guidetolerance="10"
   inkscape:pageopacity="0"
   inkscape:pageshadow="2"
   inkscape:window-width="772"
   inkscape:window-height="480"
   id="namedview49"
   showgrid="false"
   inkscape:zoom="0.49033255"
   inkscape:cx="240.653"
   inkscape:cy="240.653"
   inkscape:window-x="762"
   inkscape:window-y="116"
   inkscape:window-maximized="0"
   inkscape:current-layer="g12" />
<circle
   style="fill:#fedca4;fill-opacity:1"
   cx="338.23999"
   cy="181.733"
   r="131.08"
   id="circle2" />
<g
   id="g12">
	<path
   style="fill:#4d4d4d"
   d="m 338.24,320.813 c -76.688,0 -139.08,-62.392 -139.08,-139.08 0,-76.688 62.392,-139.08 139.08,-139.08 76.688,0 139.08,62.392 139.08,139.08 0.008,76.688 -62.384,139.08 -139.08,139.08 z m 0,-262.16 c -67.864,0 -123.08,55.216 -123.08,123.08 0,67.864 55.216,123.08 123.08,123.08 67.864,0 123.08,-55.208 123.08,-123.08 0,-67.872 -55.208,-123.08 -123.08,-123.08 z"
   id="path4"
   inkscape:connector-curvature="0" />
	
	
	
</g>
<path
   style="fill:#92c7d3"
   d="m 420,310.653 c -1.08,0 -41.224,0 -41.224,0 0.72,-7.888 1.2,-9.632 1.208,-14.256 0.12,-41.248 -27.408,-77.904 -67.696,-86.784 -22.96,-5.056 -44.88,-1.624 -63.016,8.16 -22.12,-32.928 -58.784,-55.296 -100.792,-57.864 -5.4,-0.736 -10.872,-1.256 -16.48,-1.256 -68.48,0 -124,57.248 -124,127.872 0,36.8 15.16,69.88 39.288,93.208 21.336,23.672 50.96,38.96 86.04,41.504 0,0 285.584,1.416 286.672,1.416 28.72,0 52,-25.072 52,-56 0,-30.928 -23.28,-56 -52,-56 z"
   id="path14"
   inkscape:connector-curvature="0" />
<path
   style="fill:#4d4d4d"
   d="m 420,430.653 c -1.096,0 -275.048,-1.352 -286.704,-1.416 C 96.616,426.589 65.008,411.333 41.352,385.085 14.824,359.469 0,324.317 0,286.525 0,211.605 59.216,150.653 132,150.653 c 5.368,0 10.952,0.424 17.576,1.336 40.008,2.424 77.936,23.08 102.288,55.608 19.12,-8.56 40.464,-10.576 62.16,-5.792 43,9.48 74.104,49.272 73.976,94.624 -0.008,2.44 -0.128,4.16 -0.336,6.232 H 420 c 33.088,0 60,28.712 60,64 0,35.288 -26.912,63.992 -60,63.992 z m -286.056,-16 c 3.584,0 284.072,0.696 286.064,0.696 24.248,0 43.992,-21.88 43.992,-48.352 0,-26.472 -19.736,-48.344 -44,-48.344 h -49.984 l 0.792,-8.72 c 0.272,-2.936 0.504,-5.048 0.696,-6.768 0.288,-2.608 0.48,-4.184 0.488,-6.792 0.112,-37.872 -25.72,-71.08 -61.416,-78.944 -20.344,-4.488 -40.232,-1.92 -57.488,7.384 l -6.392,3.448 -4.048,-6.024 C 221.032,190.061 186.528,170.253 148,167.901 c -6.48,-0.864 -11.376,-1.24 -16,-1.24 -63.96,-0.008 -116,53.768 -116,119.864 0,33.416 13.088,65.176 36.856,88.152 21.216,23.52 49.112,39.976 81.056,39.976 0,0 0.008,0 0.032,0 z"
   id="path16"
   inkscape:connector-curvature="0" />
<g
   id="g18">
</g>
<g
   id="g20">
</g>
<g
   id="g22">
</g>
<g
   id="g24">
</g>
<g
   id="g26">
</g>
<g
   id="g28">
</g>
<g
   id="g30">
</g>
<g
   id="g32">
</g>
<g
   id="g34">
</g>
<g
   id="g36">
</g>
<g
   id="g38">
</g>
<g
   id="g40">
</g>
<g
   id="g42">
</g>
<g
   id="g44">
</g>
<g
   id="g46">
</g>
</svg>