<?xml version="1.0" encoding="UTF-8" standalone="no"?>
<!-- Generator: Adobe Illustrator 19.0.0, SVG Export Plug-In . SVG Version: 6.00 Build 0)  -->

<svg
   xmlns:dc="http://purl.org/dc/elements/1.1/"
   xmlns:cc="http://creativecommons.org/ns#"
   xmlns:rdf="http://www.w3.org/1999/02/22-rdf-syntax-ns#"
   xmlns:svg="http://www.w3.org/2000/svg"
   xmlns="http://www.w3.org/2000/svg"
   xmlns:sodipodi="http://sodipodi.sourceforge.net/DTD/sodipodi-0.dtd"
   xmlns:inkscape="http://www.inkscape.org/namespaces/inkscape"
   version="1.1"
   id="Layer_1"
   x="0px"
   y="0px"
   viewBox="0 0 482.664 482.664"
   style="enable-background:new 0 0 482.664 482.664;"
   xml:space="preserve"
   sodipodi:docname="04d.svg"
   inkscape:version="0.92.5 (2060ec1f9f, 2020-04-08)"><metadata
   id="metadata53"><rdf:RDF><cc:Work
       rdf:about=""><dc:format>image/svg+xml</dc:format><dc:type
         rdf:resource="http://purl.org/dc/dcmitype/StillImage" /><dc:title></dc:title></cc:Work></rdf:RDF></metadata><defs
   id="defs51" /><sodipodi:namedview
   pagecolor="#ffffff"
   bordercolor="#666666"
   borderopacity="1"
   objecttolerance="10"
   gridtolerance="10"
   guidetolerance="10"
   inkscape:pageopacity="0"
   inkscape:pageshadow="2"
   inkscape:window-width="1600"
   inkscape:window-height="863"
   id="namedview49"
   showgrid="false"
   inkscape:zoom="0.48895298"
   inkscape:cx="241.332"
   inkscape:cy="241.332"
   inkscape:window-x="1600"
   inkscape:window-y="0"
   inkscape:window-maximized="1"
   inkscape:current-layer="Layer_1" />
<path
   style="fill:#92c7d3"
   d="m 420,204 c -1.08,0 -41.224,0 -41.224,0 0.72,-7.888 1.2,-9.632 1.208,-14.256 0.12,-41.248 -27.408,-77.904 -67.696,-86.784 -22.96,-5.056 -44.88,-1.624 -63.016,8.16 C 227.152,78.192 190.488,55.824 148.48,53.256 143.08,52.52 137.608,52 132,52 63.52,52 8,109.248 8,179.872 c 0,36.8 15.16,69.88 39.288,93.208 21.336,23.672 50.96,38.96 86.04,41.504 0,0 285.584,1.416 286.672,1.416 28.72,0 52,-25.072 52,-56 0,-30.928 -23.28,-56 -52,-56 z"
   id="path2"
   inkscape:connector-curvature="0" />
<path
   style="fill:#4d4d4d"
   d="m 420,324 c -1.096,0 -275.048,-1.36 -286.704,-1.416 C 96.624,319.936 65.016,304.688 41.352,278.44 14.824,252.816 0,217.664 0,179.872 0,104.952 59.216,44 132,44 c 5.368,0 10.952,0.424 17.576,1.336 40.008,2.424 77.936,23.08 102.288,55.6 19.12,-8.552 40.448,-10.568 62.152,-5.792 43,9.472 74.12,49.264 73.976,94.616 -0.008,2.44 -0.128,4.16 -0.336,6.232 H 420 c 33.088,0 60,28.712 60,64 C 480,295.28 453.088,324 420,324 Z M 133.944,308 c 3.584,0 284.072,0.688 286.064,0.696 24.248,0 43.992,-21.88 43.992,-48.344 C 464,233.888 444.256,212 420,212 h -49.992 l 0.8,-8.728 c 0.264,-2.92 0.496,-5.016 0.696,-6.736 0.288,-2.616 0.48,-4.192 0.488,-6.816 0.12,-37.888 -25.712,-71.088 -61.416,-78.952 -20.344,-4.48 -40.216,-1.92 -57.496,7.392 l -6.384,3.456 -4.048,-6.032 C 221.024,83.408 186.528,63.6 148,61.24 141.512,60.376 136.624,60 132,60 68.04,60 16,113.776 16,179.872 c 0,33.416 13.088,65.168 36.856,88.16 21.216,23.504 49.12,39.968 81.056,39.968 0,0 0.008,0 0.032,0 z"
   id="path4"
   inkscape:connector-curvature="0" />






<g
   id="g18">
</g>
<g
   id="g20">
</g>
<g
   id="g22">
</g>
<g
   id="g24">
</g>
<g
   id="g26">
</g>
<g
   id="g28">
</g>
<g
   id="g30">
</g>
<g
   id="g32">
</g>
<g
   id="g34">
</g>
<g
   id="g36">
</g>
<g
   id="g38">
</g>
<g
   id="g40">
</g>
<g
   id="g42">
</g>
<g
   id="g44">
</g>
<g
   id="g46">
</g>
<path
   style="fill:#92c7d3"
   d="m 420.123,276.88013 c -1.08,0 -41.224,0 -41.224,0 0.72,-7.888 1.2,-9.632 1.208,-14.256 0.12,-41.248 -27.408,-77.904 -67.696,-86.784 -22.96,-5.056 -44.88,-1.624 -63.016,8.16 -22.12,-32.928 -58.784,-55.296 -100.792,-57.864 -5.4,-0.736 -10.872,-1.256 -16.48,-1.256 -68.480004,0 -124.000004,57.248 -124.000004,127.872 0,36.8 15.16,69.88 39.288,93.208 21.336,23.672 50.960004,38.96 86.040004,41.504 0,0 285.584,1.416 286.672,1.416 28.72,0 52,-25.072 52,-56 0,-30.928 -23.28,-56 -52,-56 z"
   id="path2-3"
   inkscape:connector-curvature="0" /><path
   style="fill:#4d4d4d"
   d="m 420.123,396.88013 c -1.096,0 -275.048,-1.36 -286.704,-1.416 -36.672004,-2.648 -68.280004,-17.896 -91.944004,-44.144 -26.528,-25.624 -41.3520002,-60.776 -41.3520002,-98.568 0,-74.92 59.2160002,-135.872 132.0000042,-135.872 5.368,0 10.952,0.424 17.576,1.336 40.008,2.424 77.936,23.08 102.288,55.6 19.12,-8.552 40.448,-10.568 62.152,-5.792 43,9.472 74.12,49.264 73.976,94.616 -0.008,2.44 -0.128,4.16 -0.336,6.232 h 32.344 c 33.088,0 60,28.712 60,64 0,35.288 -26.912,64.008 -60,64.008 z m -286.056,-16 c 3.584,0 284.072,0.688 286.064,0.696 24.248,0 43.992,-21.88 43.992,-48.344 0,-26.464 -19.744,-48.352 -44,-48.352 h -49.992 l 0.8,-8.728 c 0.264,-2.92 0.496,-5.016 0.696,-6.736 0.288,-2.616 0.48,-4.192 0.488,-6.816 0.12,-37.888 -25.712,-71.088 -61.416,-78.952 -20.344,-4.48 -40.216,-1.92 -57.496,7.392 l -6.384,3.456 -4.048,-6.032 c -21.624,-32.176 -56.12,-51.984 -94.648,-54.344 -6.488,-0.864 -11.376,-1.24 -16,-1.24 -63.960004,0 -116.000004,53.776 -116.000004,119.872 0,33.416 13.088,65.168 36.856,88.16 21.216,23.504 49.120004,39.968 81.056004,39.968 0,0 0.008,0 0.032,0 z"
   id="path4-6"
   inkscape:connector-curvature="0" /></svg>