<?xml version="1.0" encoding="UTF-8" standalone="no"?>
<!-- Generator: Adobe Illustrator 19.0.0, SVG Export Plug-In . SVG Version: 6.00 Build 0)  -->

<svg
   xmlns:dc="http://purl.org/dc/elements/1.1/"
   xmlns:cc="http://creativecommons.org/ns#"
   xmlns:rdf="http://www.w3.org/1999/02/22-rdf-syntax-ns#"
   xmlns:svg="http://www.w3.org/2000/svg"
   xmlns="http://www.w3.org/2000/svg"
   xmlns:sodipodi="http://sodipodi.sourceforge.net/DTD/sodipodi-0.dtd"
   xmlns:inkscape="http://www.inkscape.org/namespaces/inkscape"
   version="1.1"
   id="Layer_1"
   x="0px"
   y="0px"
   viewBox="0 0 480 480"
   style="enable-background:new 0 0 480 480;"
   xml:space="preserve"
   sodipodi:docname="50d.svg"
   inkscape:version="0.92.5 (2060ec1f9f, 2020-04-08)"><metadata
   id="metadata81"><rdf:RDF><cc:Work
       rdf:about=""><dc:format>image/svg+xml</dc:format><dc:type
         rdf:resource="http://purl.org/dc/dcmitype/StillImage" /></cc:Work></rdf:RDF></metadata><defs
   id="defs79" /><sodipodi:namedview
   pagecolor="#ffffff"
   bordercolor="#666666"
   borderopacity="1"
   objecttolerance="10"
   gridtolerance="10"
   guidetolerance="10"
   inkscape:pageopacity="0"
   inkscape:pageshadow="2"
   inkscape:window-width="1528"
   inkscape:window-height="836"
   id="namedview77"
   showgrid="false"
   inkscape:zoom="0.49166667"
   inkscape:cx="240"
   inkscape:cy="240"
   inkscape:window-x="72"
   inkscape:window-y="27"
   inkscape:window-maximized="1"
   inkscape:current-layer="g28" />
<g
   id="g28">
	<path
   style="fill:#4D4D4D;"
   d="M432,185.897H48c-4.416,0-8-3.576-8-8s3.584-8,8-8h384c4.424,0,8,3.576,8,8   S436.424,185.897,432,185.897z"
   id="path2" />
	<path
   style="fill:#4d4d4d;stroke-width:1.41629636"
   d="M 403.03758,137.897 H 66.047163 C 57.189129,137.897 50,134.321 50,129.897 c 0,-4.424 7.189129,-8 16.047163,-8 H 403.03758 c 8.85804,0 16.04717,3.576 16.04717,8 0,4.424 -7.18913,8 -16.04717,8 z"
   id="path4"
   inkscape:connector-curvature="0" />
	
	
	
	
	<path
   style="fill:#4d4d4d;stroke-width:1.35475135"
   d="m 331.28329,89.897 h -176.1937 c -8.11959,0 -14.68281,-3.576 -14.68281,-8 0,-4.424 6.56322,-8 14.68281,-8 h 176.1937 c 8.1196,0 14.68281,3.576 14.68281,8 0,4.424 -6.56321,8 -14.68281,8 z"
   id="path14"
   inkscape:connector-curvature="0" />
	<path
   style="fill:#4d4d4d;stroke-width:0.99490231"
   d="M 336.75933,233.897 H 154.63051 c -4.37109,0 -7.91865,-3.576 -7.91865,-8 0,-4.424 3.54756,-8 7.91865,-8 h 182.12882 c 4.379,0 7.91864,3.576 7.91864,8 0,4.424 -3.53964,8 -7.91864,8 z"
   id="path16"
   inkscape:connector-curvature="0" />
	<path
   style="fill:#4d4d4d;stroke-width:1.31755459"
   d="M 347.60393,281.897 H 111.51472 c -7.66596,0 -13.887601,-3.576 -13.887601,-8 0,-4.424 6.221641,-8 13.887601,-8 h 236.08921 c 7.67983,0 13.8876,3.576 13.8876,8 0,4.424 -6.20777,8 -13.8876,8 z"
   id="path18"
   inkscape:connector-curvature="0" />
	<path
   style="fill:#4d4d4d;stroke-width:1.35320365"
   d="M 412.94394,329.897 H 61.361147 c -8.086404,0 -14.649283,-3.576 -14.649283,-8 0,-4.424 6.562879,-8 14.649283,-8 H 412.94394 c 8.10105,0 14.64928,3.576 14.64928,8 0,4.424 -6.54823,8 -14.64928,8 z"
   id="path20"
   inkscape:connector-curvature="0" />
	<path
   style="fill:#4d4d4d;stroke-width:1.59385657"
   d="M 393.57527,377.897 H 88.72981 c -11.218306,0 -20.32303,-3.576 -20.32303,-8 0,-4.424 9.104724,-8 20.32303,-8 h 304.84546 c 11.23864,0 20.32304,3.576 20.32304,8 0,4.424 -9.0844,8 -20.32304,8 z"
   id="path22"
   inkscape:connector-curvature="0" />
	<path
   style="fill:#4d4d4d;stroke-width:1.22819972"
   d="m 292.27119,425.897 h -96.54237 c -6.66143,0 -12.0678,-3.576 -12.0678,-8 0,-4.424 5.40637,-8 12.0678,-8 h 96.54237 c 6.67349,0 12.0678,3.576 12.0678,8 0,4.424 -5.39431,8 -12.0678,8 z"
   id="path24"
   inkscape:connector-curvature="0" />
	
</g>








<g
   id="g46">
</g>
<g
   id="g48">
</g>
<g
   id="g50">
</g>
<g
   id="g52">
</g>
<g
   id="g54">
</g>
<g
   id="g56">
</g>
<g
   id="g58">
</g>
<g
   id="g60">
</g>
<g
   id="g62">
</g>
<g
   id="g64">
</g>
<g
   id="g66">
</g>
<g
   id="g68">
</g>
<g
   id="g70">
</g>
<g
   id="g72">
</g>
<g
   id="g74">
</g>
</svg>